<svg xmlns="http://www.w3.org/2000/svg" viewBox="0 0 192 192" role="img" aria-labelledby="title desc">
  <title id="title">AISee Image Object icon logo</title>
  <desc id="desc">A compact AISee Image Object icon with an eye, object bounding box, mask ring, and transparency grid.</desc>
  <defs>
    <linearGradient id="aisee-image-object-icon-gradient" x1="40" y1="36" x2="158" y2="156" gradientUnits="userSpaceOnUse">
      <stop offset="0" stop-color="#18A0FB"/>
      <stop offset="0.56" stop-color="#28C7A6"/>
      <stop offset="1" stop-color="#F5B942"/>
    </linearGradient>
  </defs>
  <g id="logo-mark">
    <path fill="#152033" d="M96 32c41 0 75 27 90 64-15 37-49 64-90 64S21 133 6 96c15-37 49-64 90-64Z"/>
    <path fill="url(#aisee-image-object-icon-gradient)" d="M96 49c31 0 58 18 73 47-15 29-42 47-73 47S38 125 23 96c15-29 42-47 73-47Z"/>
    <path fill="#F7FAFC" d="M61 65h70a9 9 0 0 1 9 9v44a9 9 0 0 1-9 9H61a9 9 0 0 1-9-9V74a9 9 0 0 1 9-9Z"/>
    <path fill="#E5ECF3" d="M61 65h18v18H61V65Zm36 0h18v18H97V65Zm-18 18h18v18H79V83Zm36 0h18v18h-18V83Zm-54 18h18v18H61v-18Zm36 0h18v18H97v-18Z"/>
    <circle cx="96" cy="96" r="28" fill="#F7FAFC"/>
    <circle cx="96" cy="96" r="16" fill="#152033"/>
    <path fill="none" stroke="#18A0FB" stroke-width="6" stroke-linecap="round" stroke-dasharray="14 10" d="M96 62a34 34 0 1 1 0 68 34 34 0 0 1 0-68Z"/>
    <path fill="none" stroke="#152033" stroke-width="6" stroke-linecap="round" stroke-linejoin="round" d="M49 72V54h18M143 72V54h-18M49 120v18h18M143 120v18h-18"/>
    <circle cx="65" cy="114" r="7" fill="#F5B942"/>
    <circle cx="96" cy="78" r="7" fill="#18A0FB"/>
    <circle cx="127" cy="114" r="7" fill="#28C7A6"/>
  </g>
</svg>
